PathFileType	4	(X/Y/Z)	C:/Users/opensim2020/Desktop/walking_exp_matlab/subject02_walking06_straight_01.trc	
DataRate	CameraRate	NumFrames	NumMarkers	Units	OrigDataRate	OrigDataStartFrame	OrigNumFrames	
100.00	100.00	7	41	mm	100.00	883	205	
Frame#	Time	LFHD			RFHD			LBHD			RBHD			C7			T10			CLAV			STRN			RBAK			LSHO			LUPA			LELB			LFRM			LWRA			LWRB			LFIN			RSHO			RUPA			RELB			RFRM			RWRA			RWRB			RFIN			LASI			RASI			LPSI			RPSI			LTHI			LKNE			LTIB			LANK			LHEE			LTOE			RTHI			RKNE			RTIB			RANK			RHEE			RTOE			*39			*40			
		X1	Y1	Z1	X2	Y2	Z2	X3	Y3	Z3	X4	Y4	Z4	X5	Y5	Z5	X6	Y6	Z6	X7	Y7	Z7	X8	Y8	Z8	X9	Y9	Z9	X10	Y10	Z10	X11	Y11	Z11	X12	Y12	Z12	X13	Y13	Z13	X14	Y14	Z14	X15	Y15	Z15	X16	Y16	Z16	X17	Y17	Z17	X18	Y18	Z18	X19	Y19	Z19	X20	Y20	Z20	X21	Y21	Z21	X22	Y22	Z22	X23	Y23	Z23	X24	Y24	Z24	X25	Y25	Z25	X26	Y26	Z26	X27	Y27	Z27	X28	Y28	Z28	X29	Y29	Z29	X30	Y30	Z30	X31	Y31	Z31	X32	Y32	Z32	X33	Y33	Z33	X34	Y34	Z34	X35	Y35	Z35	X36	Y36	Z36	X37	Y37	Z37	X38	Y38	Z38	X39	Y39	Z39	X40	Y40	Z40	X41	Y41	Z41	

129	1.280	1402.60425	113.80798	1737.17920	1545.63782	113.16590	1715.73645	1388.04675	1.49692	1637.10754	1529.75122	-11.09000	1612.23535	1452.41797	-35.84736	1506.40955	1454.13220	-96.36751	1234.78589	1448.01257	102.32597	1439.29065	1451.93835	149.88837	1264.30054	1509.99976	-100.40129	1334.71533	1277.67896	52.84597	1489.58667	1181.70325	91.82491	1300.38965	1160.73901	139.78418	1165.58630	1172.91675	232.98912	1068.92297	1233.37219	347.14938	1020.05164	1197.30603	319.86523	986.10687	1204.23535	378.85910	957.58002	1642.40686	33.64038	1467.25159	1720.78235	-20.87614	1282.56921	1740.11926	-22.01249	1135.62915	1760.17700	-0.62713	1016.45178	1740.42480	42.20212	887.70593	1771.59082	-5.45916	886.43274	1773.78833	28.26615	821.97662	1309.77625	123.31532	968.96228	1565.53723	144.53339	960.94336	1405.70667	-79.66050	1014.07770	1520.31335	-76.96046	1011.36310	1274.00024	10.58598	660.91388	1310.94177	-53.96358	467.33487	1311.83252	-145.46469	294.98245	1351.66394	-185.06738	74.71464	1401.46509	-226.61818	49.31913	1341.72791	-31.95796	31.87732	1655.33911	135.04697	668.05560	1625.77954	214.16989	476.45721	1647.96375	237.97182	292.24384	1629.56812	289.10995	102.20368	1577.38037	278.43179	34.80267	1642.96692	448.92191	99.06303	1489.79089	-2.17290	1777.74756			 
130	1.290	1404.96313	124.04219	1735.75513	1547.87036	123.29295	1713.99609	1390.40625	11.72029	1635.63867	1531.43164	-1.18728	1610.45190	1454.22998	-25.85134	1504.82751	1455.69458	-85.82391	1232.92517	1449.85608	112.53019	1437.66980	1453.32825	160.30566	1262.80505	1511.67065	-90.06979	1332.95715	1279.39661	63.21030	1487.98694	1183.31189	101.62550	1298.74744	1162.47461	150.25862	1163.96033	1175.18945	244.10757	1068.07471	1235.78040	358.52829	1020.37207	1199.86621	331.45856	985.91467	1206.91760	390.98462	958.08527	1643.88281	43.07120	1465.01001	1721.95251	-11.71392	1280.44922	1741.56018	-13.11869	1133.68823	1761.74829	7.66030	1014.46051	1742.34302	50.10071	885.52075	1773.22754	2.29768	884.51422	1775.64978	35.59405	819.75366	1310.31152	133.14331	966.93750	1565.96399	156.30405	959.39355	1407.60034	-69.00410	1012.31006	1522.28809	-65.78224	1009.58179	1274.78625	17.43265	659.99017	1311.69983	-48.33913	466.98792	1312.54602	-142.21332	295.83362	1351.84912	-184.56967	76.02332	1401.68799	-226.22011	50.96751	1341.68823	-31.89678	31.79314	1656.71558	145.90480	666.50140	1626.43774	223.98178	474.26669	1649.10083	252.05260	290.98627	1629.79578	307.64319	101.76059	1577.72461	298.18546	34.51767	1642.02747	467.99652	101.98349	1492.10925	7.91706	1776.15991			 
131	1.300	1407.25989	134.25317	1734.17139	1550.17664	133.46098	1712.32202	1392.62305	21.89832	1634.25317	1533.92554	9.06473	1608.86426	1456.14661	-15.63714	1503.18860	1457.40637	-75.20989	1231.10376	1451.76428	122.79414	1436.08472	1454.81396	170.82533	1261.32727	1513.26379	-79.55608	1330.81934	1281.19885	73.58031	1486.50049	1185.50745	112.15471	1297.07458	1164.45691	160.41920	1162.31506	1177.30701	254.37291	1066.85229	1238.09131	369.35117	1020.14325	1202.39990	342.57895	985.36603	1209.51941	402.21405	958.00726	1646.02185	53.04654	1463.04004	1723.45581	-2.29416	1278.44653	1743.32361	-3.87069	1131.93555	1763.45190	16.18840	1012.53735	1744.39844	58.34752	883.40997	1774.78699	10.09796	882.53644	1777.71924	43.43505	817.91583	1310.74194	143.12239	965.00751	1566.38721	168.10927	957.90613	1409.67773	-58.21917	1010.53821	1524.37134	-54.50720	1007.82697	1275.66052	24.64340	659.13470	1312.39417	-42.33470	466.55060	1313.18115	-138.62993	296.81921	1351.85974	-183.98734	77.52811	1401.74988	-225.84889	53.01308	1341.61353	-31.82373	31.67867	1657.77393	156.52046	664.60077	1627.32935	233.74957	472.18503	1649.51782	265.13141	289.44092	1630.58154	324.58020	101.52703	1578.77490	316.26010	34.09792	1641.76611	485.16327	103.97080	1494.65125	18.24176	1774.75452	-3356.94067	2845.97534	1033.74963 
132	1.310	1409.68787	144.53642	1732.81152	1552.62048	143.69086	1710.74414	1394.89478	32.17471	1632.94910	1535.76697	19.20192	1607.20068	1458.16882	-5.42334	1501.63660	1459.32202	-64.50433	1229.41077	1453.61267	133.12067	1434.60388	1456.32214	181.52473	1259.99292	1514.86145	-68.99463	1328.95166	1283.10999	83.88976	1485.03699	1187.60779	122.15714	1295.37378	1166.53748	170.08997	1160.53821	1179.95471	264.67307	1065.12976	1240.44653	379.64883	1019.40033	1204.86816	353.01321	984.41895	1211.94922	412.81924	957.39264	1648.08337	63.22126	1461.09619	1724.97070	7.30174	1276.58765	1744.97192	5.42664	1130.05591	1765.16736	24.98410	1010.67004	1746.30994	66.68590	881.37811	1776.53857	18.35966	880.72681	1779.72766	51.45004	815.97980	1311.58752	153.30449	963.21954	1567.00854	180.04759	956.59467	1411.88672	-47.22161	1008.82642	1526.61060	-43.11823	1006.23145	1276.66736	32.42430	658.23273	1313.07922	-35.73855	466.22305	1313.61633	-134.63544	297.91025	1351.63745	-183.24390	79.12635	1401.50208	-225.44786	55.44146	1341.46802	-31.74474	31.57017	1659.86108	168.49469	663.53418	1627.94360	243.80424	470.19299	1649.62610	277.06326	287.75998	1631.02661	339.33282	100.77770	1578.63733	331.36301	33.29275	1642.06665	499.97598	104.65593	1497.17639	28.52376	1773.15625			 
133	1.320	1412.24280	154.84775	1731.58984	1555.14185	153.94942	1709.26184	1397.23535	42.51411	1631.70410	1538.36584	29.61825	1605.81824	1460.23840	4.96189	1500.06665	1461.43518	-53.58603	1227.70459	1455.61194	143.52199	1433.26538	1457.85596	192.28828	1258.75293	1516.69873	-58.20425	1327.03735	1285.08606	94.23682	1483.72583	1189.82312	131.76689	1293.84937	1169.13647	179.67116	1158.83398	1182.46680	274.39401	1063.64221	1242.76147	389.34854	1018.07672	1207.53369	362.58478	982.80383	1214.27515	422.67731	956.18335	1650.26038	73.27432	1459.37842	1726.68750	17.01749	1274.79846	1746.39600	14.69969	1128.13367	1766.91382	33.92818	1008.83081	1748.43774	75.35171	879.46173	1778.35706	26.88624	878.97852	1781.72729	59.57458	814.15796	1312.47522	163.45981	961.35950	1567.76746	192.09468	955.39484	1414.36548	-36.13946	1007.14111	1529.18286	-31.65858	1004.76288	1277.61230	40.61333	657.59222	1313.53394	-28.70421	465.92062	1313.87976	-130.10988	299.29437	1351.24805	-182.34715	81.21841	1401.25952	-225.25870	58.55220	1341.31799	-31.65189	31.47520	1661.48816	180.32101	662.13593	1628.64014	254.55234	468.48447	1650.40173	288.14398	286.22342	1631.31506	351.87888	99.61064	1578.83545	344.88037	32.08564	1642.73499	512.56134	104.16434	1499.66724	38.73360	1772.01465	-3360.21777	2845.10376	1034.04260 
134	1.330	1414.80554	165.20082	1730.46436	1557.68799	164.25223	1707.86902	1399.65369	52.86703	1630.64600	1540.35999	39.76233	1604.40930	1462.49756	15.39533	1498.64258	1463.74597	-42.57323	1226.07043	1457.66052	154.01324	1432.05701	1459.46790	203.22841	1257.73926	1518.69177	-47.54649	1325.27612	1287.16516	104.50908	1482.56165	1192.66052	142.18756	1292.39807	1171.57397	189.41176	1157.50208	1184.74524	283.80664	1062.18066	1245.08350	398.60397	1016.32697	1209.76160	371.83835	981.17419	1216.54089	431.83264	954.57574	1652.48047	83.64098	1457.65039	1728.44385	26.96771	1273.20667	1748.35413	24.54303	1126.62878	1768.91553	43.32313	1007.31158	1750.46887	84.43343	877.71228	1780.13672	35.65243	877.34851	1783.80188	68.33105	812.51514	1313.49353	173.72426	959.55017	1568.76794	204.28525	954.31964	1417.14063	-24.91080	1005.64362	1531.95056	-19.93683	1003.46411	1278.84619	49.49053	656.80670	1314.03967	-21.08613	465.77368	1313.91589	-125.02358	300.69830	1350.70349	-181.33118	83.65577	1400.51721	-224.53223	61.74759	1341.13953	-31.50583	31.40058	1663.09497	192.67090	660.95447	1629.22009	265.64920	466.72653	1650.52405	298.56580	284.29349	1631.26331	362.12656	97.83485	1578.71545	354.93213	30.18821	1643.72510	522.79401	102.12064	1502.32178	49.16133	1770.56128	-3360.30200	2845.05103	1033.86023 
135	1.340	1417.49207	175.63541	1729.41003	1560.30359	174.66455	1706.53320	1402.12354	63.31914	1629.69580	1542.79333	50.11801	1603.14734	1464.81555	25.70605	1497.29260	1466.21570	-31.48575	1224.53125	1459.85437	164.63292	1430.96826	1461.13110	214.27199	1256.79590	1520.95471	-36.52862	1323.57068	1289.32214	114.73569	1481.51965	1195.12622	151.39799	1291.07898	1174.54688	198.37383	1155.80457	1187.22083	292.35593	1060.22913	1247.22607	407.34940	1014.02753	1212.04736	380.40146	979.00964	1218.61157	440.27368	952.09808	1654.50525	94.15204	1455.92358	1730.32507	37.11586	1271.70093	1749.95215	34.30618	1124.92297	1770.74390	52.78592	1005.76404	1752.54663	93.49831	875.97736	1781.98438	44.72994	875.87256	1785.89771	77.22779	811.01343	1314.89087	184.41251	958.02087	1570.00977	216.62506	953.38971	1420.14099	-13.42752	1004.13470	1534.92029	-7.97633	1002.28949	1280.06030	59.02613	656.31335	1314.59033	-12.82152	465.65842	1313.93835	-119.53260	302.48868	1349.98047	-180.01393	86.33095	1399.39575	-223.84045	65.29434	1340.93152	-31.41009	31.28478	1664.91223	205.62883	660.04480	1630.37646	277.55783	465.74051	1651.39575	309.01648	282.82956	1630.67041	370.01355	95.15557	1577.84705	362.86139	28.52543	1644.25940	530.64410	98.10310	1505.07251	59.57160	1769.51233	-3360.17603	2845.08569	1033.90344 
